{"accessors":[{"bufferView":2,"componentType":5126,"count":2892,"max":[3.7867729663848877,1.1773710250854492,1.72576105594635],"min":[-3.7867729663848877,-1.1768310070037842,-3.979935884475708],"type":"VEC3","byteOffset":0},{"bufferView":2,"byteOffset":34704,"componentType":5126,"count":2892,"max":[1,1,1],"min":[-1,-1,-1],"type":"VEC3"},{"bufferView":3,"componentType":5126,"count":2892,"max":[1,1,1,1],"min":[-1,-1,-1,1],"type":"VEC4","byteOffset":0},{"bufferView":1,"componentType":5126,"count":2892,"max":[0.990822970867157,0.9901400208473206],"min":[0.005510000046342611,0.005510000046342611],"type":"VEC2","byteOffset":0},{"bufferView":0,"componentType":5125,"count":14688,"max":[2891],"min":[0],"type":"SCALAR","byteOffset":0},{"bufferView":2,"byteOffset":69408,"componentType":5126,"count":2364,"max":[3.5273680686950684,1.1143029928207397,3.1037919521331787],"min":[-3.5273680686950684,-1.113765001296997,-3.98888897895813],"type":"VEC3"},{"bufferView":2,"byteOffset":97776,"componentType":5126,"count":2364,"max":[0.9994306564331055,0.999301016330719,0.9906172156333923],"min":[-0.9994303584098816,-0.999300479888916,-0.9992374777793884],"type":"VEC3"},{"bufferView":3,"byteOffset":46272,"componentType":5126,"count":2364,"max":[0.9979598522186279,0.9992885589599609,0.9999844431877136,1],"min":[-0.997613787651062,-1,-0.9784178733825684,1],"type":"VEC4"},{"bufferView":1,"byteOffset":23136,"componentType":5126,"count":2364,"max":[0.9122849702835083,0.915723979473114],"min":[0.05009400099515915,0.1570730060338974],"type":"VEC2"},{"bufferView":0,"byteOffset":58752,"componentType":5125,"count":12960,"max":[2363],"min":[0],"type":"SCALAR"},{"bufferView":2,"byteOffset":126144,"componentType":5126,"count":2755,"max":[3.892735004425049,1.5935790538787842,1.176954984664917],"min":[-3.1193389892578125,-1.5930379629135132,-4.324364185333252],"type":"VEC3"},{"bufferView":2,"byteOffset":159204,"componentType":5126,"count":2755,"max":[0.9999510049819946,1,0.9999876022338867],"min":[-0.9999839067459106,-1,-0.9999823570251465],"type":"VEC3"},{"bufferView":3,"byteOffset":84096,"componentType":5126,"count":2755,"max":[0.9981432557106018,1,0.9949617385864258,1],"min":[-0.9944887161254883,-1,-0.9630007743835449,-1],"type":"VEC4"},{"bufferView":1,"byteOffset":42048,"componentType":5126,"count":2755,"max":[0.9745180010795593,0.9899089932441711],"min":[0.005510000046342611,0.07879900187253952],"type":"VEC2"},{"bufferView":0,"byteOffset":110592,"componentType":5125,"count":13968,"max":[2754],"min":[0],"type":"SCALAR"},{"bufferView":2,"byteOffset":192264,"componentType":5126,"count":2936,"max":[3.800260066986084,1.702360987663269,1.176954984664917],"min":[-3.892735004425049,-1.702360987663269,-4.324364185333252],"type":"VEC3"},{"bufferView":2,"byteOffset":227496,"componentType":5126,"count":2936,"max":[0.9999906420707703,1,0.9998948574066162],"min":[-0.9999993443489075,-1,-0.9999998807907104],"type":"VEC3"},{"bufferView":3,"byteOffset":128176,"componentType":5126,"count":2936,"max":[0.999894380569458,1,0.9817164540290833,1],"min":[-0.9999442100524902,-1,-0.9796849489212036,-1],"type":"VEC4"},{"bufferView":1,"byteOffset":64088,"componentType":5126,"count":2936,"max":[0.9638149738311768,0.989795982837677],"min":[0.005510000046342611,0.09641899913549423],"type":"VEC2"},{"bufferView":0,"byteOffset":166464,"componentType":5125,"count":14736,"max":[2935],"min":[0],"type":"SCALAR"},{"bufferView":2,"byteOffset":262728,"componentType":5126,"count":2003,"max":[2.565315008163452,1.702360987663269,1.150961995124817],"min":[-3.800260066986084,-1.702360987663269,-4.287137985229492],"type":"VEC3"},{"bufferView":2,"byteOffset":286764,"componentType":5126,"count":2003,"max":[0.9999993443489075,0.9999998807907104,0.9998948574066162],"min":[-0.9999906420707703,-1,-0.9999998807907104],"type":"VEC3"},{"bufferView":3,"byteOffset":175152,"componentType":5126,"count":2003,"max":[0.9998946189880371,1,0.9796902537345886,1],"min":[-0.9999439716339111,-1,-0.9994393587112427,1],"type":"VEC4"},{"bufferView":1,"byteOffset":87576,"componentType":5126,"count":2003,"max":[0.9910749793052673,0.9915570020675659],"min":[0.0060720001347362995,0.0387750007212162],"type":"VEC2"},{"bufferView":0,"byteOffset":225408,"componentType":5125,"count":9984,"max":[2002],"min":[0],"type":"SCALAR"},{"bufferView":2,"byteOffset":310800,"componentType":5126,"count":1217,"max":[3.7923660278320312,0.6513130068778992,4.461175918579102],"min":[-3.7923660278320312,-0.6511750221252441,1.1293530464172363],"type":"VEC3"},{"bufferView":2,"byteOffset":325404,"componentType":5126,"count":1217,"max":[0.9856566190719604,0.9999998807907104,1],"min":[-0.9856608510017395,-1,-1],"type":"VEC3"},{"bufferView":3,"byteOffset":207200,"componentType":5126,"count":1217,"max":[1,0.8788756728172302,0.9966281652450562,1],"min":[-0.9994062185287476,-0.9559220671653748,-0.9966012239456177,1],"type":"VEC4"},{"bufferView":1,"byteOffset":103600,"componentType":5126,"count":1217,"max":[0.8523740172386169,0.6262580156326294],"min":[0.0055959997698664665,0.005621000193059444],"type":"VEC2"},{"bufferView":0,"byteOffset":265344,"componentType":5125,"count":6240,"max":[1216],"min":[0],"type":"SCALAR"},{"bufferView":2,"byteOffset":340008,"componentType":5126,"count":1768,"max":[3.867408037185669,0.6764540076255798,4.558412075042725],"min":[-3.867408037185669,-0.6759139895439148,1.158877968788147],"type":"VEC3"},{"bufferView":2,"byteOffset":361224,"componentType":5126,"count":1768,"max":[0.9991548657417297,1,1],"min":[-0.9991553425788879,-1,-1],"type":"VEC3"},{"bufferView":3,"byteOffset":226672,"componentType":5126,"count":1768,"max":[0.9983670711517334,1,0.9301484227180481,1],"min":[-0.9999852776527405,-1,-0.9299543499946594,1],"type":"VEC4"},{"bufferView":1,"byteOffset":113336,"componentType":5126,"count":1768,"max":[0.8083930015563965,0.9254900217056274],"min":[0.18753500282764435,0.12949000298976898],"type":"VEC2"},{"bufferView":0,"byteOffset":290304,"componentType":5125,"count":9600,"max":[1767],"min":[0],"type":"SCALAR"}],"asset":{"extras":{"author":"ivanlynx (https://sketchfab.com/ivanlynx)","license":"CC-BY-4.0 (http://creativecommons.org/licenses/by/4.0/)","source":"https://sketchfab.com/models/4993f221600e4e24ae48b301dd6fc17f","title":"Headphones"},"generator":"Sketchfab-3.19.6","version":"2.0"},"bufferViews":[{"buffer":0,"byteLength":328704,"byteOffset":0,"name":"floatBufferViews","target":34963},{"buffer":0,"byteLength":127480,"byteOffset":328704,"byteStride":8,"name":"floatBufferViews","target":34962},{"buffer":0,"byteLength":382440,"byteOffset":456184,"byteStride":12,"name":"floatBufferViews","target":34962},{"buffer":0,"byteLength":254960,"byteOffset":838624,"byteStride":16,"name":"floatBufferViews","target":34962},{"buffer":0,"byteOffset":1093584,"byteLength":216607},{"buffer":0,"byteOffset":1310192,"byteLength":69322},{"buffer":0,"byteOffset":1379516,"byteLength":96703}],"buffers":[{"byteLength":1476220,"uri":"data:application/octet-stream;base64,"}],"images":[{"bufferView":4,"mimeType":"image/png"},{"bufferView":5,"mimeType":"image/png"},{"bufferView":6,"mimeType":"image/jpeg"}],"materials":[{"doubleSided":true,"emissiveFactor":[0,0,0],"name":"initialShadingGroup","normalTexture":{"index":1,"scale":1,"texCoord":0},"occlusionTexture":{"index":0,"strength":1,"texCoord":0},"pbrMetallicRoughness":{"baseColorFactor":[1,1,1,1],"baseColorTexture":{"index":2,"texCoord":0},"metallicFactor":1,"metallicRoughnessTexture":{"index":0,"texCoord":0},"roughnessFactor":1},"alphaMode":"OPAQUE"}],"meshes":[{"primitives":[{"attributes":{"NORMAL":1,"POSITION":0,"TANGENT":2,"TEXCOORD_0":3},"indices":4,"material":0,"mode":4}]},{"primitives":[{"attributes":{"NORMAL":6,"POSITION":5,"TANGENT":7,"TEXCOORD_0":8},"indices":9,"material":0,"mode":4}]},{"primitives":[{"attributes":{"NORMAL":11,"POSITION":10,"TANGENT":12,"TEXCOORD_0":13},"indices":14,"material":0,"mode":4}]},{"primitives":[{"attributes":{"NORMAL":16,"POSITION":15,"TANGENT":17,"TEXCOORD_0":18},"indices":19,"material":0,"mode":4}]},{"primitives":[{"attributes":{"NORMAL":21,"POSITION":20,"TANGENT":22,"TEXCOORD_0":23},"indices":24,"material":0,"mode":4}]},{"primitives":[{"attributes":{"NORMAL":26,"POSITION":25,"TANGENT":27,"TEXCOORD_0":28},"indices":29,"material":0,"mode":4}]},{"primitives":[{"attributes":{"NORMAL":31,"POSITION":30,"TANGENT":32,"TEXCOORD_0":33},"indices":34,"material":0,"mode":4}]}],"nodes":[{"children":[1],"name":"RootNode (gltf orientation matrix)","rotation":[-0.7071067811865475,0,0,0.7071067811865476],"translation":[0,0,0],"scale":[1,1,1]},{"children":[2],"name":"RootNode (model correction matrix)"},{"children":[3,4,5,6,7,8,9],"name":"Beats_Final_sketchfab_01.obj.cleaner.materialmerger.gles"},{"mesh":0,"name":""},{"mesh":1,"name":""},{"mesh":2,"name":""},{"mesh":3,"name":""},{"mesh":4,"name":""},{"mesh":5,"name":""},{"mesh":6,"name":""}],"samplers":[{"magFilter":9729,"minFilter":9987,"wrapS":10497,"wrapT":10497}],"scene":0,"scenes":[{"name":"OSG_Scene","nodes":[0]}],"textures":[{"sampler":0,"source":0},{"sampler":0,"source":1},{"sampler":0,"source":2}]}
